<?xml version="1.0" encoding="UTF-8" standalone="no"?>
<!DOCTYPE svg PUBLIC "-//W3C//DTD SVG 1.1//EN"
 "http://www.w3.org/Graphics/SVG/1.1/DTD/svg11.dtd">
<!-- Generated by graphviz version 9.0.0 (20230911.1827)
 -->
<!-- Pages: 1 -->
<svg width="968pt" height="293pt"
 viewBox="0.00 0.00 968.00 292.50" xmlns="http://www.w3.org/2000/svg" xmlns:xlink="http://www.w3.org/1999/xlink">
<g id="graph0" class="graph" transform="scale(1 1) rotate(0) translate(4 288.5)">
<polygon fill="#ffffff" stroke="none" points="-4,4 -4,-288.5 964,-288.5 964,4 -4,4"/>
<!-- X1 -->
<g id="node1" class="node">
<title>X1</title>
<polygon fill="#ffffff" stroke="black" points="191.25,-254.5 0,-254.5 0,0 191.25,0 191.25,-254.5"/>
<polygon fill="none" stroke="black" points="0,-230.75 0,-254.5 191.25,-254.5 191.25,-230.75 0,-230.75"/>
<text text-anchor="start" x="87.38" y="-237.2" font-family="arial" font-size="14.00">X1</text>
<polygon fill="none" stroke="black" points="0,-207 0,-230.75 115.25,-230.75 115.25,-207 0,-207"/>
<text text-anchor="start" x="4" y="-213.45" font-family="arial" font-size="14.00">IPEX 20877&#45;040T</text>
<polygon fill="none" stroke="black" points="115.25,-207 115.25,-230.75 153.25,-230.75 153.25,-207 115.25,-207"/>
<text text-anchor="start" x="119.25" y="-213.45" font-family="arial" font-size="14.00">male</text>
<polygon fill="none" stroke="black" points="153.25,-207 153.25,-230.75 191.25,-230.75 191.25,-207 153.25,-207"/>
<text text-anchor="start" x="157.25" y="-213.45" font-family="arial" font-size="14.00">9&#45;pin</text>
<polygon fill="none" stroke="black" points="0,-184 0,-207 107.12,-207 107.12,-184 0,-184"/>
<text text-anchor="start" x="38.94" y="-189.7" font-family="arial" font-size="14.00">DCD</text>
<polygon fill="none" stroke="black" points="107.12,-184 107.12,-207 191.25,-207 191.25,-184 107.12,-184"/>
<text text-anchor="start" x="145.44" y="-189.7" font-family="arial" font-size="14.00">1</text>
<polygon fill="none" stroke="black" points="0,-161 0,-184 107.12,-184 107.12,-161 0,-161"/>
<text text-anchor="start" x="44.19" y="-166.7" font-family="arial" font-size="14.00">RX</text>
<polygon fill="none" stroke="black" points="107.12,-161 107.12,-184 191.25,-184 191.25,-161 107.12,-161"/>
<text text-anchor="start" x="145.44" y="-166.7" font-family="arial" font-size="14.00">2</text>
<polygon fill="none" stroke="black" points="0,-138 0,-161 107.12,-161 107.12,-138 0,-138"/>
<text text-anchor="start" x="44.94" y="-143.7" font-family="arial" font-size="14.00">TX</text>
<polygon fill="none" stroke="black" points="107.12,-138 107.12,-161 191.25,-161 191.25,-138 107.12,-138"/>
<text text-anchor="start" x="145.44" y="-143.7" font-family="arial" font-size="14.00">3</text>
<polygon fill="none" stroke="black" points="0,-115 0,-138 107.12,-138 107.12,-115 0,-115"/>
<text text-anchor="start" x="39.69" y="-120.7" font-family="arial" font-size="14.00">DTR</text>
<polygon fill="none" stroke="black" points="107.12,-115 107.12,-138 191.25,-138 191.25,-115 107.12,-115"/>
<text text-anchor="start" x="145.44" y="-120.7" font-family="arial" font-size="14.00">4</text>
<polygon fill="none" stroke="black" points="0,-92 0,-115 107.12,-115 107.12,-92 0,-92"/>
<text text-anchor="start" x="38.19" y="-97.7" font-family="arial" font-size="14.00">GND</text>
<polygon fill="none" stroke="black" points="107.12,-92 107.12,-115 191.25,-115 191.25,-92 107.12,-92"/>
<text text-anchor="start" x="145.44" y="-97.7" font-family="arial" font-size="14.00">5</text>
<polygon fill="none" stroke="black" points="0,-69 0,-92 107.12,-92 107.12,-69 0,-69"/>
<text text-anchor="start" x="39.31" y="-74.7" font-family="arial" font-size="14.00">DSR</text>
<polygon fill="none" stroke="black" points="107.12,-69 107.12,-92 191.25,-92 191.25,-69 107.12,-69"/>
<text text-anchor="start" x="145.44" y="-74.7" font-family="arial" font-size="14.00">6</text>
<polygon fill="none" stroke="black" points="0,-46 0,-69 107.12,-69 107.12,-46 0,-46"/>
<text text-anchor="start" x="40.06" y="-51.7" font-family="arial" font-size="14.00">RTS</text>
<polygon fill="none" stroke="black" points="107.12,-46 107.12,-69 191.25,-69 191.25,-46 107.12,-46"/>
<text text-anchor="start" x="145.44" y="-51.7" font-family="arial" font-size="14.00">7</text>
<polygon fill="none" stroke="black" points="0,-23 0,-46 107.12,-46 107.12,-23 0,-23"/>
<text text-anchor="start" x="40.06" y="-28.7" font-family="arial" font-size="14.00">CTS</text>
<polygon fill="none" stroke="black" points="107.12,-23 107.12,-46 191.25,-46 191.25,-23 107.12,-23"/>
<text text-anchor="start" x="145.44" y="-28.7" font-family="arial" font-size="14.00">8</text>
<polygon fill="none" stroke="black" points="0,0 0,-23 107.12,-23 107.12,0 0,0"/>
<text text-anchor="start" x="46.81" y="-5.7" font-family="arial" font-size="14.00">RI</text>
<polygon fill="none" stroke="black" points="107.12,0 107.12,-23 191.25,-23 191.25,0 107.12,0"/>
<text text-anchor="start" x="145.44" y="-5.7" font-family="arial" font-size="14.00">9</text>
</g>
<!-- W1 -->
<g id="node3" class="node">
<title>W1</title>
<polygon fill="#ffffff" stroke="black" points="539.25,-284.5 335.25,-284.5 335.25,-84 539.25,-84 539.25,-284.5"/>
<polygon fill="none" stroke="black" points="335.25,-260.75 335.25,-284.5 539.25,-284.5 539.25,-260.75 335.25,-260.75"/>
<text text-anchor="start" x="426.75" y="-267.2" font-family="arial" font-size="14.00">W1</text>
<polygon fill="none" stroke="black" points="335.25,-237 335.25,-260.75 368.44,-260.75 368.44,-237 335.25,-237"/>
<text text-anchor="start" x="344.72" y="-243.45" font-family="arial" font-size="14.00">3x</text>
<polygon fill="none" stroke="black" points="368.44,-237 368.44,-260.75 445.88,-260.75 445.88,-237 368.44,-237"/>
<text text-anchor="start" x="377.91" y="-243.45" font-family="arial" font-size="14.00">0.25 mm²</text>
<polygon fill="none" stroke="black" points="445.88,-237 445.88,-260.75 485.81,-260.75 485.81,-237 445.88,-237"/>
<text text-anchor="start" x="455.34" y="-243.45" font-family="arial" font-size="14.00">+ S</text>
<polygon fill="none" stroke="black" points="485.81,-237 485.81,-260.75 539.25,-260.75 539.25,-237 485.81,-237"/>
<text text-anchor="start" x="495.28" y="-243.45" font-family="arial" font-size="14.00">0.2 m</text>
<text text-anchor="start" x="366.38" y="-221.7" font-family="arial" font-size="14.00"> </text>
<text text-anchor="start" x="337.12" y="-202.7" font-family="arial" font-size="14.00">X1:5:GND</text>
<text text-anchor="start" x="403.12" y="-202.7" font-family="arial" font-size="14.00"> &#160;&#160;&#160;&#160;1:WH &#160;&#160;&#160;</text>
<text text-anchor="start" x="475.12" y="-202.7" font-family="arial" font-size="14.00">X2:1:GND</text>
<polygon fill="#000000" stroke="none" points="335.25,-197 335.25,-199 539.25,-199 539.25,-197 335.25,-197"/>
<polygon fill="#ffffff" stroke="none" points="335.25,-195 335.25,-197 539.25,-197 539.25,-195 335.25,-195"/>
<polygon fill="#000000" stroke="none" points="335.25,-193 335.25,-195 539.25,-195 539.25,-193 335.25,-193"/>
<text text-anchor="start" x="343.12" y="-177.7" font-family="arial" font-size="14.00">X1:2:RX</text>
<text text-anchor="start" x="405.38" y="-177.7" font-family="arial" font-size="14.00"> &#160;&#160;&#160;&#160;2:BN &#160;&#160;&#160;</text>
<text text-anchor="start" x="481.88" y="-177.7" font-family="arial" font-size="14.00">X2:3:TX</text>
<polygon fill="#000000" stroke="none" points="335.25,-172 335.25,-174 539.25,-174 539.25,-172 335.25,-172"/>
<polygon fill="#895956" stroke="none" points="335.25,-170 335.25,-172 539.25,-172 539.25,-170 335.25,-170"/>
<polygon fill="#000000" stroke="none" points="335.25,-168 335.25,-170 539.25,-170 539.25,-168 335.25,-168"/>
<text text-anchor="start" x="343.88" y="-152.7" font-family="arial" font-size="14.00">X1:3:TX</text>
<text text-anchor="start" x="404.25" y="-152.7" font-family="arial" font-size="14.00"> &#160;&#160;&#160;&#160;3:GN &#160;&#160;&#160;</text>
<text text-anchor="start" x="481.12" y="-152.7" font-family="arial" font-size="14.00">X2:2:RX</text>
<polygon fill="#000000" stroke="none" points="335.25,-147 335.25,-149 539.25,-149 539.25,-147 335.25,-147"/>
<polygon fill="#00ff00" stroke="none" points="335.25,-145 335.25,-147 539.25,-147 539.25,-145 335.25,-145"/>
<polygon fill="#000000" stroke="none" points="335.25,-143 335.25,-145 539.25,-145 539.25,-143 335.25,-143"/>
<text text-anchor="start" x="366.38" y="-127.7" font-family="arial" font-size="14.00"> </text>
<text text-anchor="start" x="337.12" y="-108.7" font-family="arial" font-size="14.00">X1:5:GND</text>
<text text-anchor="start" x="418.5" y="-108.7" font-family="arial" font-size="14.00">Shield</text>
<polygon fill="#000000" stroke="none" points="335.25,-103 335.25,-105 539.25,-105 539.25,-103 335.25,-103"/>
<text text-anchor="start" x="366.38" y="-87.7" font-family="arial" font-size="14.00"> </text>
</g>
<!-- X1&#45;&#45;W1 -->
<g id="edge1" class="edge">
<title>X1:e&#45;&#45;W1:w</title>
<path fill="none" stroke="#000000" stroke-width="2" d="M191.25,-101.25C269.43,-103.43 261.06,-196.43 335.25,-194.25"/>
<path fill="none" stroke="#ffffff" stroke-width="2" d="M191.25,-103.25C267.44,-103.25 259.06,-196.25 335.25,-196.25"/>
<path fill="none" stroke="#000000" stroke-width="2" d="M191.25,-105.25C265.44,-103.07 257.07,-196.07 335.25,-198.25"/>
</g>
<!-- X1&#45;&#45;W1 -->
<g id="edge3" class="edge">
<title>X1:e&#45;&#45;W1:w</title>
<path fill="none" stroke="#000000" stroke-width="2" d="M191.25,-170.25C255.13,-170.25 271.12,-169.25 335.25,-169.25"/>
<path fill="none" stroke="#895956" stroke-width="2" d="M191.25,-172.25C255.25,-172.25 271.25,-171.25 335.25,-171.25"/>
<path fill="none" stroke="#000000" stroke-width="2" d="M191.25,-174.25C255.38,-174.25 271.37,-173.25 335.25,-173.25"/>
</g>
<!-- X1&#45;&#45;W1 -->
<g id="edge5" class="edge">
<title>X1:e&#45;&#45;W1:w</title>
<path fill="none" stroke="#000000" stroke-width="2" d="M191.25,-147.25C254.89,-147.28 270.87,-144.28 335.25,-144.25"/>
<path fill="none" stroke="#00ff00" stroke-width="2" d="M191.25,-149.25C255.26,-149.25 271.24,-146.25 335.25,-146.25"/>
<path fill="none" stroke="#000000" stroke-width="2" d="M191.25,-151.25C255.63,-151.22 271.61,-148.22 335.25,-148.25"/>
</g>
<!-- X1&#45;&#45;W1 -->
<g id="edge7" class="edge">
<title>X1:e&#45;&#45;W1:w</title>
<path fill="none" stroke="#000000" stroke-width="2" d="M191.25,-103.25C255.25,-103.25 271.25,-104.25 335.25,-104.25"/>
</g>
<!-- X2 -->
<g id="node2" class="node">
<title>X2</title>
<polygon fill="#ffffff" stroke="black" points="960,-255.5 683.25,-255.5 683.25,-139 960,-139 960,-255.5"/>
<polygon fill="none" stroke="black" points="683.25,-231.75 683.25,-255.5 960,-255.5 960,-231.75 683.25,-231.75"/>
<text text-anchor="start" x="813.38" y="-238.2" font-family="arial" font-size="14.00">X2</text>
<polygon fill="none" stroke="black" points="683.25,-208 683.25,-231.75 884,-231.75 884,-208 683.25,-208"/>
<text text-anchor="start" x="687.25" y="-214.45" font-family="arial" font-size="14.00">IPEX 20633&#45;030T or compatible</text>
<polygon fill="none" stroke="black" points="884,-208 884,-231.75 922,-231.75 922,-208 884,-208"/>
<text text-anchor="start" x="888" y="-214.45" font-family="arial" font-size="14.00">male</text>
<polygon fill="none" stroke="black" points="922,-208 922,-231.75 960,-231.75 960,-208 922,-208"/>
<text text-anchor="start" x="926" y="-214.45" font-family="arial" font-size="14.00">3&#45;pin</text>
<polygon fill="none" stroke="black" points="683.25,-185 683.25,-208 810.12,-208 810.12,-185 683.25,-185"/>
<text text-anchor="start" x="742.94" y="-190.7" font-family="arial" font-size="14.00">1</text>
<polygon fill="none" stroke="black" points="810.12,-185 810.12,-208 960,-208 960,-185 810.12,-185"/>
<text text-anchor="start" x="869.69" y="-190.7" font-family="arial" font-size="14.00">GND</text>
<polygon fill="none" stroke="black" points="683.25,-162 683.25,-185 810.12,-185 810.12,-162 683.25,-162"/>
<text text-anchor="start" x="742.94" y="-167.7" font-family="arial" font-size="14.00">2</text>
<polygon fill="none" stroke="black" points="810.12,-162 810.12,-185 960,-185 960,-162 810.12,-162"/>
<text text-anchor="start" x="875.69" y="-167.7" font-family="arial" font-size="14.00">RX</text>
<polygon fill="none" stroke="black" points="683.25,-139 683.25,-162 810.12,-162 810.12,-139 683.25,-139"/>
<text text-anchor="start" x="742.94" y="-144.7" font-family="arial" font-size="14.00">3</text>
<polygon fill="none" stroke="black" points="810.12,-139 810.12,-162 960,-162 960,-139 810.12,-139"/>
<text text-anchor="start" x="876.44" y="-144.7" font-family="arial" font-size="14.00">TX</text>
</g>
<!-- W1&#45;&#45;X2 -->
<g id="edge2" class="edge">
<title>W1:e&#45;&#45;X2:w</title>
<path fill="none" stroke="#000000" stroke-width="2" d="M539.25,-194.25C603.25,-194.25 619.25,-194.25 683.25,-194.25"/>
<path fill="none" stroke="#ffffff" stroke-width="2" d="M539.25,-196.25C603.25,-196.25 619.25,-196.25 683.25,-196.25"/>
<path fill="none" stroke="#000000" stroke-width="2" d="M539.25,-198.25C603.25,-198.25 619.25,-198.25 683.25,-198.25"/>
</g>
<!-- W1&#45;&#45;X2 -->
<g id="edge4" class="edge">
<title>W1:e&#45;&#45;X2:w</title>
<path fill="none" stroke="#000000" stroke-width="2" d="M539.25,-169.25C602.29,-170.11 616.93,-149.11 683.25,-148.25"/>
<path fill="none" stroke="#895956" stroke-width="2" d="M539.25,-171.25C603.93,-171.25 618.57,-150.25 683.25,-150.25"/>
<path fill="none" stroke="#000000" stroke-width="2" d="M539.25,-173.25C605.57,-172.39 620.21,-151.39 683.25,-152.25"/>
</g>
<!-- W1&#45;&#45;X2 -->
<g id="edge6" class="edge">
<title>W1:e&#45;&#45;X2:w</title>
<path fill="none" stroke="#000000" stroke-width="2" d="M539.25,-144.25C606.15,-145.34 619.92,-172.34 683.25,-171.25"/>
<path fill="none" stroke="#00ff00" stroke-width="2" d="M539.25,-146.25C604.37,-146.25 618.13,-173.25 683.25,-173.25"/>
<path fill="none" stroke="#000000" stroke-width="2" d="M539.25,-148.25C602.58,-147.16 616.35,-174.16 683.25,-175.25"/>
</g>
</g>
</svg>
